<svg xmlns="http://www.w3.org/2000/svg" width="128" height="128" viewBox="0 0 128 128" fill="none">
  <defs>
    <linearGradient id="paper" x1="18" y1="8" x2="105" y2="123" gradientUnits="userSpaceOnUse">
      <stop stop-color="#FFFFFF"/>
      <stop offset="1" stop-color="#E5EAF1"/>
    </linearGradient>
  </defs>
  <path d="M24 10h50l31 31v67c0 10-8 18-18 18H24c-10 0-18-8-18-18V28c0-10 8-18 18-18Z" fill="#64748B" opacity=".16"/>
  <path d="M24 6h50l31 31v67c0 10-8 18-18 18H24c-10 0-18-8-18-18V24c0-10 8-18 18-18Z" fill="url(#paper)"/>
  <path d="M74 6v31h31L74 6Z" fill="#D7DEE8"/>
  <path d="M75 8v27h27" fill="none" stroke="#FFFFFF" stroke-width="2" stroke-linecap="round" opacity=".72"/>
  <g transform="translate(5 0)"><path d="M39 55 29 65l10 10M61 55l10 10-10 10M54 50 46 80" fill="none" stroke="#96A3B5" stroke-width="5" stroke-linecap="round" stroke-linejoin="round"/></g>
  <rect x="49" y="83" width="62" height="34" rx="11" fill="#C95B38"/>
  <g id="badge-label" fill="none" stroke="#FFFFFF" stroke-width="2.35" stroke-linecap="round" stroke-linejoin="round"><g transform="translate(54 90.267) scale(1.39)"><path d="M2.4 1.8 H6.6 V9.6 C6.6 12.2 3.4 12.6 2.2 10.6"/></g><g transform="translate(67.626 90.267) scale(1.39)"><path d="M1 12.4 L4 1.8 L7 12.4 M2.3 8.4 H5.7"/></g><g transform="translate(81.251 90.267) scale(1.39)"><path d="M1.2 1.8 L4 12.4 L6.8 1.8"/></g><g transform="translate(94.877 90.267) scale(1.39)"><path d="M1 12.4 L4 1.8 L7 12.4 M2.3 8.4 H5.7"/></g></g>
</svg>